<?xml version="1.0" encoding="UTF-8"?>
<svg id="Layer_2" data-name="Layer 2" xmlns="http://www.w3.org/2000/svg" xmlns:xlink="http://www.w3.org/1999/xlink" viewBox="0 0 363.17 582.99">
  <defs>
    <style>
      .cls-1 {
        fill: #f7931e;
      }

      .cls-2 {
        fill: #7571f9;
      }

      .cls-3 {
        fill: url(#linear-gradient);
      }
    </style>
    <linearGradient id="linear-gradient" x1="25.72" y1="416.03" x2="123.89" y2="438.29" gradientUnits="userSpaceOnUse">
      <stop offset=".13" stop-color="#7571f9"/>
      <stop offset=".46" stop-color="#7673f9"/>
      <stop offset=".59" stop-color="#7d7af9"/>
      <stop offset=".69" stop-color="#8986f9"/>
      <stop offset=".78" stop-color="#9b98fa"/>
      <stop offset=".85" stop-color="#b1affb"/>
      <stop offset=".91" stop-color="#cccbfc"/>
      <stop offset=".97" stop-color="#ececfe"/>
      <stop offset="1" stop-color="#fff"/>
    </linearGradient>
  </defs>
  <g id="Layer_11" data-name="Layer 11">
    <circle class="cls-2" cx="182.66" cy="112.82" r="60.98"/>
    <path class="cls-2" d="M206.07,188.85c.17,2.45,1.78,2.41,5.87,9.62.88,1.55,5.26,9.41,7.71,19.75,1.91,8.06,1.95,14.64,2,25.57.06,12.11-.91,13.49.26,14.39,6.71,5.18,53.36-29,83.09-80.91,30.96-54.06,30.79-105.05,30.59-105.15-.18-.09-.33-.13-.45-.16-7.29-1.92-16.56,24.74-31.57,45.58-15.76,21.87-35.33,33.8-45.88,40.21-26.78,16.28-52.28,21.31-51.61,31.09Z"/>
    <path class="cls-2" d="M196.46,339.09c-.35,1.19-.7,2.38-1.05,3.57,0,.04-.02.08-.04.12-10.02,33.7-23.04,66.7-34.9,91.75-41.99,88.66-104.69,151.96-109.97,148.31-3.86-2.67,25.45-39.47,50.05-104.5.36-.94,1.31-3.5,2.68-7.37,3.19-8.99,8.65-25.09,14.13-44.52,5.49-19.43,11-42.21,14.32-64.57h0c5.97-40.26,4.8-79.15-16.52-94.75C78.8,240.53,3.72,296.25.13,289.66c-5.09-9.36,140.64-132.25,192.84-96,28.87,20.05,21.48,83.48,3.49,145.43Z"/>
    <path class="cls-3" d="M131.68,361.87c-3.31,22.36-8.83,45.14-14.32,64.57-5.4,18.86-10.53,34.2-14.13,44.52-11.85,6.11-30,14.06-53.37,18.92-14.05,2.92-27.88,5.8-29.49,2.2-3.32-7.43,53.52-24.43,87.21-77,17.54-27.38,22.06-53.86,24.1-53.23Z"/>
    <path class="cls-1" d="M363.17,56.08c-31.84-3.61-39.13-.08-56.08,27.12,3.61-31.84.08-39.13-27.12-56.08,31.84,3.61,39.13.08,56.08-27.12-3.61,31.84-.08,39.13,27.12,56.08Z"/>
  </g>
</svg>